<?xml version="1.0" encoding="UTF-8" standalone="no"?>
<!-- Created with Inkscape (http://www.inkscape.org/) -->

<svg
   version="1.1"
   id="svg1"
   width="800"
   height="280"
   viewBox="0 0 800 280"
   xmlns="http://www.w3.org/2000/svg"
   xmlns:svg="http://www.w3.org/2000/svg">
  <defs
     id="defs1" />
  <g
     id="g1">
    <g
       id="group-R5">
      <path
         id="path2"
         d="m 2998.66,2100 4.57,-0.1 c 56.08,-2.42 101.2,-49.13 101.2,-105.9 v -225.88 c 0,-58.3 -47.59,-106 -105.77,-106 -58.17,0 -105.77,47.7 -105.77,106 V 1994 c 0,58.3 47.6,106 105.77,106 z m -781.81,-282.95 c 41.39,37.56 105.89,36.34 145.77,-3.63 l 159.45,-159.74 c 41.12,-41.21 41.12,-108.65 0,-149.88 -41.15,-41.21 -108.46,-41.21 -149.59,0 l -159.44,159.74 c -41.13,41.23 -41.13,108.67 0,149.88 z m 1421.1,-3.63 c 41.15,41.22 108.46,41.22 149.59,0 41.14,-41.21 41.14,-108.65 0,-149.88 L 3628.11,1503.8 c -41.13,-41.21 -108.44,-41.21 -149.59,0 l -3.62,3.82 c -37.46,41.47 -36.26,106.1 3.62,146.06 z m -637.96,-308.13 c 237.38,0 444.48,-129.29 555.39,-321.33 H 2444.62 c 110.91,192.04 318.01,321.33 555.37,321.33 z m 2853.66,-323.05 v -16.15 h -45.61 v -119.47 h -18.52 v 119.47 h -45.61 v 16.15 z m 42.7,0 38.9,-114.67 38.65,114.67 h 26.08 v -135.62 h -17.51 v 80.06 c 0,2.76 0.07,7.34 0.19,13.74 0.13,6.41 0.2,13.28 0.2,20.6 l -38.65,-114.4 h -18.19 l -39.01,114.4 v -4.16 c 0,-3.33 0.11,-8.38 0.28,-15.19 0.19,-6.8 0.27,-11.79 0.27,-14.99 v -80.06 h -17.5 v 135.62 z M 5671.6,833.629 c -55.52,0 -102.83,-35.719 -118.6,-107.168 h 233.79 c -13.04,70.07 -59.65,107.168 -115.19,107.168 z M 340.043,801.352 c -74.043,0 -134.367,-59.77 -134.367,-133.954 0,-74.187 60.324,-134.628 134.367,-134.628 74.039,0 133.687,60.441 133.687,134.628 0,74.184 -59.648,133.954 -133.687,133.954 z m 777.427,4.789 c -76.09,0 -137.794,-63.18 -137.794,-142.18 0,-79 61.704,-142.199 137.794,-142.199 76.1,0 137.8,63.199 137.8,142.199 0,79 -61.7,142.18 -137.8,142.18 z m 2688.06,-4.789 c -77.47,0 -140.55,-63.204 -140.55,-140.821 0,-77.621 63.08,-141.5 140.55,-141.5 77.47,0 140.52,63.879 140.52,141.5 0,77.617 -63.05,140.821 -140.52,140.821 z m 1227.83,187.519 c 111.74,0 218.02,-83.812 218.02,-241.109 V 347.309 h -211.16 v 361.972 c 0,58.41 -38.4,96.86 -86.38,96.86 -48.68,0 -87.08,-39.153 -87.08,-96.86 V 347.309 h -211.14 v 361.972 c 0,58.41 -38.39,96.86 -86.38,96.86 -48.68,0 -87.08,-39.153 -87.08,-96.86 V 347.309 H 4271 v 624.382 h 198.82 v -78.3 h 5.48 c 41.83,63.199 112.44,94.781 179.62,94.781 65.13,0 133.02,-34.34 174.14,-107.844 h 5.48 c 52.12,74.883 126.83,108.543 198.82,108.543 z m -1888.02,0 c 116.54,0 224.85,-82.441 224.85,-243.172 V 347.309 H 3159.06 V 701.73 c 0,62.532 -41.83,104.411 -94.62,104.411 -52.79,0 -94.61,-43.262 -94.61,-104.411 V 347.309 h -211.14 v 624.382 h 198.8 v -78.3 h 5.48 c 47.31,64.558 122.72,95.48 182.37,95.48 z M 1848.27,1369.41 c 39.07,0 79.52,-4.8 114.49,-13.05 v -171.04 c -15.77,4.11 -28.11,6.19 -41.82,6.19 -56.9,0 -106.26,-23.37 -106.26,-98.91 V 971.691 h 128.88 V 800.648 H 1814.68 V 347.309 h -211.16 v 453.339 h -91.86 v 171.043 h 91.86 v 164.849 c 0,155.94 110.38,232.87 244.75,232.87 z m 2306.21,-17.86 V 347.309 h -198.82 v 83.113 h -5.48 c -54.16,-61.141 -129.58,-95.481 -205.68,-95.481 -171.38,0 -285.19,156.598 -285.19,326.27 0,169.66 113.81,325.598 285.19,325.598 65.81,0 144.66,-24.731 193.34,-83.809 h 5.48 v 448.55 z M 1116.1,994.359 c 191.28,0 347.57,-135.328 347.57,-330.398 0,-195.09 -156.29,-330.402 -347.57,-330.402 -190.588,0 -344.83,133.953 -344.83,330.402 0,196.449 154.242,330.398 344.83,330.398 z m 4554.12,-5.488 c 183.75,0 329.78,-137.391 329.78,-329.723 0,-17.918 -1.68,-33.078 -3,-42.937 l -0.43,-3.082 h -440.82 c 7.54,-80.359 57.58,-125.699 118.6,-125.699 34.03,0 68.69,13.761 98.59,46.679 l 4.24,4.832 h 203.62 c -52.79,-141.5 -181.67,-207.429 -310.58,-207.429 -165.2,0 -329.75,109.199 -329.75,327.636 0,192.332 146.03,329.723 329.75,329.723 z m -3420.91,-16.5 V 617.238 c 0,-52.886 41.13,-95.476 92.55,-95.476 51.41,0 92.56,42.59 92.56,95.476 v 355.133 h 211.13 V 620.68 c 0,-179.969 -123.4,-289.871 -303.69,-289.871 -176.87,0 -303.7,105.781 -303.7,289.871 V 972.371 Z M 277.645,987.488 c 73.363,0 156.312,-30.898 200.191,-92.039 h 5.484 v 76.242 H 682.137 V 344.551 C 682.137,136.41 510.75,37.5 340.719,37.5 175.516,37.5 14.3945,131.602 13.0156,308.129 H 210.461 c 4.805,-78.969 61.699,-115.391 127.527,-115.391 65.809,0 132.992,40.532 132.992,140.821 v 96.16 h -5.484 C 420.941,376.148 346.199,347.309 277.645,347.309 111.063,347.309 0,506.66 0,669.461 0,832.25 111.063,987.488 277.645,987.488"
         style="fill:#02a95c;fill-opacity:1;fill-rule:evenodd;stroke:none"
         transform="matrix(0.13333333,0,0,-0.13333333,0,280)" />
    </g>
  </g>
</svg>
